<svg width="80" height="80" viewBox="0 0 80 80" fill="none" xmlns="http://www.w3.org/2000/svg">
<g clip-path="url(#clip0_1_313)">
<path d="M53.3893 4.62187C53.572 4.62187 53.756 4.58452 53.9334 4.50452C54.3146 4.3339 54.7014 4.17249 55.0934 4.02453C55.7828 3.76187 56.1293 2.9925 55.8667 2.30453C55.6053 1.61516 54.8346 1.27391 54.1479 1.52984C53.7065 1.69781 53.2706 1.87922 52.8426 2.07125C52.1706 2.37265 51.8693 3.16187 52.172 3.8339C52.3934 4.32843 52.8787 4.62187 53.3893 4.62187Z" fill="#D4C17F"/>
<path d="M53.3334 33.5377C54.0707 33.5377 54.6666 32.9418 54.6666 32.2044V31.9738C54.6666 31.6232 54.6893 31.2791 54.7334 30.9405C54.8293 30.2099 54.3146 29.5405 53.5867 29.4446C52.8346 29.3487 52.1867 29.8632 52.0893 30.5926C52.0307 31.0432 51.9999 31.5085 51.9999 31.974V32.2046C52.0001 32.9418 52.596 33.5377 53.3334 33.5377Z" fill="#D4C17F"/>
<path d="M46.6667 33.8671C47.404 33.8671 47.9999 33.2697 47.9999 32.5338V31.1791C47.9999 30.4432 47.404 29.8458 46.6667 29.8458C45.9293 29.8458 45.3334 30.4432 45.3334 31.1791V32.5338C45.3334 33.2697 45.9293 33.8671 46.6667 33.8671Z" fill="#D4C17F"/>
<path d="M54.3227 12.7777C53.8934 13.0137 53.4734 13.2684 53.0695 13.5391C52.4574 13.9485 52.2921 14.7777 52.7015 15.3898C52.9588 15.7738 53.3815 15.9804 53.8109 15.9804C54.0668 15.9804 54.3241 15.9083 54.5509 15.7551C54.8935 15.5271 55.2468 15.3124 55.6094 15.1124C56.2535 14.7577 56.4894 13.9457 56.1347 13.3018C55.7787 12.6565 54.9693 12.4244 54.3227 12.7777Z" fill="#D4C17F"/>
<path d="M35.4108 12.6418C35.6628 13.0445 36.0961 13.2659 36.5401 13.2659C36.7828 13.2659 37.0281 13.2006 37.2468 13.0618C37.8709 12.6698 38.0601 11.8472 37.6683 11.2245C37.4162 10.8231 37.155 10.4312 36.8803 10.0472C36.4523 9.44856 35.6217 9.30856 35.0203 9.73918C34.4203 10.1686 34.2829 11.0006 34.7109 11.5992C34.9547 11.9392 35.1881 12.2872 35.4108 12.6418Z" fill="#D4C17F"/>
<path d="M59.7881 2.82185C59.8428 2.82185 59.9001 2.81779 59.956 2.81123C60.3681 2.7592 60.7854 2.7192 61.2067 2.68982C61.9426 2.64045 62.4973 2.00576 62.4493 1.27123C62.4013 0.536544 61.756 -0.0193926 61.0307 0.029826C60.556 0.060451 60.0867 0.10717 59.6228 0.165763C58.8921 0.257794 58.3734 0.924356 58.4668 1.65514C58.5507 2.32842 59.1254 2.82185 59.7881 2.82185Z" fill="#D4C17F"/>
<path d="M54.844 24.7218C54.344 25.2618 54.3746 26.1059 54.9133 26.6059C55.1721 26.8445 55.496 26.9618 55.8213 26.9618C56.1799 26.9618 56.536 26.8191 56.7999 26.5351C57.0772 26.2365 57.3826 25.9537 57.7079 25.6951C58.2852 25.2365 58.3811 24.3978 57.9225 23.8218C57.4652 23.2459 56.6252 23.1471 56.0493 23.6071C55.6186 23.9484 55.2133 24.3245 54.844 24.7218Z" fill="#D4C17F"/>
<path d="M42.7519 13.0618C42.9719 13.2004 43.2173 13.2659 43.4599 13.2659C43.904 13.2659 44.3373 13.0445 44.5893 12.6418C44.8119 12.2872 45.0452 11.9392 45.2893 11.5992C45.7173 11.0006 45.5799 10.1686 44.9799 9.73918C44.3785 9.30856 43.5479 9.44856 43.1199 10.0472C42.8452 10.4312 42.5826 10.8231 42.3319 11.2245C41.9401 11.8472 42.1293 12.6698 42.7519 13.0618Z" fill="#D4C17F"/>
<path d="M53.3333 39.9738C54.0707 39.9738 54.6666 39.3764 54.6666 38.6405V37.9738C54.6666 37.2378 54.0707 36.6405 53.3333 36.6405C52.596 36.6405 52.0001 37.2378 52.0001 37.9738V38.6405C52.0001 39.3764 52.596 39.9738 53.3333 39.9738Z" fill="#D4C17F"/>
<path d="M46.6387 27.091C46.7001 27.1004 46.7601 27.1043 46.8201 27.1043C47.476 27.1043 48.0494 26.619 48.1413 25.9496C48.196 25.539 48.2693 25.1337 48.3599 24.7337C48.524 24.0151 48.0732 23.3016 47.3546 23.139C46.636 22.9763 45.9213 23.4257 45.7587 24.1443C45.6519 24.6202 45.564 25.1029 45.4973 25.591C45.3987 26.3204 45.9107 26.9924 46.6387 27.091Z" fill="#D4C17F"/>
<path d="M37.5613 17.1791C37.6946 17.5738 37.8146 17.9724 37.9254 18.3777C38.0868 18.971 38.6254 19.3618 39.2107 19.3618C39.3266 19.3618 39.444 19.3459 39.5613 19.3138C39.7266 19.2698 39.8707 19.1898 39.9999 19.0952C40.1293 19.1899 40.2732 19.2699 40.4385 19.3138C40.5559 19.3459 40.6732 19.3618 40.7891 19.3618C41.3745 19.3618 41.9132 18.9712 42.0745 18.3777C42.1851 17.9724 42.3038 17.5737 42.4385 17.1791C42.6771 16.4818 42.3026 15.7245 41.6065 15.4871C40.9665 15.2685 40.2918 15.5818 39.9998 16.1738C39.7077 15.5818 39.0331 15.2685 38.3931 15.4871C37.696 15.7245 37.3227 16.4818 37.5613 17.1791Z" fill="#D4C17F"/>
<path d="M47.7854 8.20842C48.096 8.20842 48.408 8.10045 48.6601 7.8817C48.976 7.60701 49.3001 7.34029 49.6307 7.08576C50.2147 6.63639 50.3227 5.80045 49.8747 5.21639C49.4254 4.63233 48.588 4.5217 48.0054 4.97233C47.6307 5.2603 47.2654 5.55905 46.9107 5.86967C46.3548 6.35233 46.296 7.19498 46.7801 7.75107C47.0427 8.05389 47.4133 8.20842 47.7854 8.20842Z" fill="#D4C17F"/>
<path d="M48.8213 17.5418C48.528 17.9312 48.2507 18.3338 47.9907 18.7471C47.5974 19.3698 47.7854 20.1938 48.408 20.5871C48.6294 20.7244 48.8733 20.7912 49.1174 20.7912C49.5601 20.7912 49.9933 20.5712 50.2468 20.1685C50.4682 19.8179 50.7027 19.4765 50.9521 19.1471C51.3948 18.5591 51.2774 17.7231 50.6894 17.2791C50.1001 16.8351 49.264 16.9565 48.8213 17.5418Z" fill="#D4C17F"/>
<path d="M61.3027 10.6939C60.8094 10.7312 60.3241 10.7898 59.8454 10.8685C59.1187 10.9885 58.6268 11.6753 58.7468 12.4018C58.8535 13.0551 59.4174 13.5178 60.0601 13.5178C60.1321 13.5178 60.2041 13.5124 60.2774 13.5004C60.6841 13.4337 61.0933 13.3845 61.508 13.3524C62.2427 13.2951 62.7921 12.6538 62.7347 11.9192C62.6772 11.1857 62.0519 10.6312 61.3027 10.6939Z" fill="#D4C17F"/>
<path d="M66.236 2.92045C66.6507 2.98717 67.064 3.06576 67.4719 3.15514C67.5693 3.17654 67.664 3.18576 67.7587 3.18576C68.3719 3.18576 68.9227 2.7617 69.0601 2.13904C69.2174 1.41905 68.7627 0.708422 68.0427 0.551079C67.5841 0.449829 67.1227 0.36311 66.6547 0.288423C65.928 0.168423 65.2454 0.668422 65.1294 1.39514C65.0133 2.12186 65.508 2.80576 66.236 2.92045Z" fill="#D4C17F"/>
<path d="M68.5173 11.6525C68.0573 11.4884 67.5893 11.3418 67.1159 11.2165C66.4079 11.0325 65.6759 11.4525 65.4852 12.1645C65.2973 12.8765 65.7212 13.6057 66.4332 13.7951C66.8346 13.9004 67.2291 14.0231 67.6159 14.1631C67.7652 14.2164 67.9159 14.2417 68.0665 14.2417C68.6132 14.2417 69.1265 13.9017 69.3212 13.3576C69.5707 12.6645 69.2093 11.9004 68.5173 11.6525Z" fill="#D4C17F"/>
<path d="M62.124 21.3204C61.388 21.3578 60.8213 21.9831 60.8587 22.7178C60.8946 23.4537 61.472 24.0137 62.256 23.9831C62.6654 23.9631 63.088 23.9751 63.4933 24.0164C63.5401 24.0217 63.5866 24.0231 63.6321 24.0231C64.308 24.0231 64.8854 23.5125 64.9574 22.8271C65.0321 22.0939 64.4988 21.4392 63.7668 21.3631C63.2266 21.3084 62.668 21.2912 62.124 21.3204Z" fill="#D4C17F"/>
<path d="M77.6813 8.87245C77.9439 9.16042 78.3053 9.30714 78.6666 9.30714C78.988 9.30714 79.3092 9.19245 79.5652 8.95917C80.1092 8.46323 80.1478 7.61917 79.6519 7.07511C79.4919 6.90042 79.3292 6.72839 79.1652 6.56042C78.6478 6.03371 77.8052 6.02714 77.2798 6.54167C76.7519 7.05636 76.7452 7.90026 77.2584 8.42698C77.4027 8.57245 77.5439 8.72182 77.6813 8.87245Z" fill="#D4C17F"/>
<path d="M57.3334 50.6403H41.3334C40.5961 50.6403 40.0001 51.2377 40.0001 51.9736C40.0001 52.7095 40.5961 53.3069 41.3334 53.3069H57.3334C61.072 53.3069 64.0001 50.3789 64.0001 46.6402V43.9735C64.0001 43.2375 63.4041 42.6402 62.6668 42.6402H17.3335C16.5961 42.6402 16.0002 43.2375 16.0002 43.9735V46.6402C16.0002 50.3788 18.9281 53.3069 22.6669 53.3069H34.6669V59.9736C34.6669 60.7095 35.2628 61.3069 36.0001 61.3069C36.7375 61.3069 37.3334 60.7095 37.3334 59.9736V51.9736C37.3334 51.2377 36.7375 50.6403 36.0001 50.6403H22.6669C20.4228 50.6403 18.6669 48.883 18.6669 46.6403V45.3071H61.3335V46.6403C61.3334 48.883 59.5773 50.6403 57.3334 50.6403Z" fill="#D4C17F"/>
<path d="M70.6466 31.4018C70.6599 31.5897 70.6666 31.7818 70.6666 31.9738C70.6666 32.7097 71.2625 33.3071 71.9999 33.3071C72.7372 33.3071 73.3332 32.7097 73.3332 31.9738C73.3332 31.7179 73.3238 31.4644 73.3052 31.2124C73.2532 30.4791 72.6292 29.9244 71.8811 29.9765C71.1466 30.0297 70.5946 30.6671 70.6466 31.4018Z" fill="#D4C17F"/>
<path d="M67.8306 24.0831C67.3439 24.6363 67.3974 25.4777 67.9492 25.9657C68.2586 26.2377 68.5478 26.5351 68.8092 26.8498C69.0746 27.1671 69.4533 27.3298 69.836 27.3298C70.136 27.3298 70.4386 27.2285 70.688 27.0218C71.2533 26.5498 71.3307 25.7098 70.8586 25.1432C70.5107 24.7245 70.1239 24.3273 69.7119 23.9645C69.1613 23.4792 68.3186 23.5298 67.8306 24.0831Z" fill="#D4C17F"/>
<path d="M41.3334 30.5657C41.3334 29.8298 40.7374 29.2324 40.0001 29.2324C39.2627 29.2324 38.6668 29.8298 38.6668 30.5657V32.0484C38.6668 32.7843 39.2627 33.3816 40.0001 33.3816C40.7374 33.3816 41.3334 32.7843 41.3334 32.0484V30.5657Z" fill="#D4C17F"/>
<path d="M40.0001 36.6404C39.2627 36.6404 38.6668 37.2377 38.6668 37.9737V38.6404C38.6668 39.3763 39.2627 39.9737 40.0001 39.9737C40.7374 39.9737 41.3334 39.3763 41.3334 38.6404V37.9737C41.3334 37.2377 40.7373 36.6404 40.0001 36.6404Z" fill="#D4C17F"/>
<path d="M45.3334 38.6404C45.3334 39.3763 45.9293 39.9737 46.6667 39.9737C47.404 39.9737 47.9999 39.3763 47.9999 38.6404V37.9737C47.9999 37.2377 47.404 36.6404 46.6667 36.6404C45.9293 36.6404 45.3334 37.2377 45.3334 37.9737V38.6404Z" fill="#D4C17F"/>
<path d="M41.3334 23.9738C41.3334 23.7632 41.336 23.5552 41.3427 23.3458C41.3587 22.7765 41.0107 22.2873 40.5121 22.0832C40.4615 22.0605 40.4042 22.0605 40.3507 22.0446C40.2507 22.0179 40.156 21.9779 40.0481 21.9752C40.0348 21.9738 40.0228 21.9738 40.0081 21.9738C40.0054 21.9738 40.0028 21.9752 40.0001 21.9752C39.9974 21.9752 39.9948 21.9738 39.9921 21.9738C39.9774 21.9738 39.9654 21.9738 39.9521 21.9752C39.8442 21.9779 39.7481 22.0179 39.6495 22.0446C39.5962 22.0605 39.5374 22.0605 39.4881 22.0832C38.9895 22.2873 38.6414 22.7765 38.6575 23.3458C38.6642 23.5552 38.6668 23.7632 38.6668 23.9738V24.6405C38.6668 25.3765 39.2628 25.9738 40.0001 25.9738C40.7374 25.9738 41.3334 25.3765 41.3334 24.6405V23.9738Z" fill="#D4C17F"/>
<path d="M32.0001 38.6404C32.0001 39.3763 32.5961 39.9737 33.3334 39.9737C34.0707 39.9737 34.6667 39.3763 34.6667 38.6404V37.9737C34.6667 37.2377 34.0707 36.6404 33.3334 36.6404C32.5961 36.6404 32.0001 37.2377 32.0001 37.9737V38.6404Z" fill="#D4C17F"/>
<path d="M33.3334 33.8671C34.0707 33.8671 34.6667 33.2697 34.6667 32.5338V31.1791C34.6667 30.4432 34.0707 29.8458 33.3334 29.8458C32.5961 29.8458 32.0001 30.4432 32.0001 31.1791V32.5338C32.0001 33.2697 32.5961 33.8671 33.3334 33.8671Z" fill="#D4C17F"/>
<path d="M28.0001 38.6404V37.9737C28.0001 37.2377 27.4042 36.6404 26.6668 36.6404C25.9295 36.6404 25.3336 37.2377 25.3336 37.9737V38.6404C25.3336 39.3763 25.9295 39.9737 26.6668 39.9737C27.4042 39.9737 28.0001 39.3765 28.0001 38.6404Z" fill="#D4C17F"/>
<path d="M9.31202 27.0218C9.56139 27.2285 9.86264 27.3298 10.164 27.3298C10.5467 27.3298 10.9254 27.1671 11.1908 26.8498C11.4522 26.5351 11.7414 26.2377 12.0508 25.9657C12.6028 25.4777 12.6561 24.6363 12.1694 24.0831C11.684 23.5298 10.8414 23.4763 10.288 23.9643C9.87592 24.327 9.4892 24.7243 9.13998 25.1431C8.66936 25.7098 8.7467 26.5498 9.31202 27.0218Z" fill="#D4C17F"/>
<path d="M73.3333 63.9737H45.3334V57.307C45.3334 56.5711 44.7374 55.9738 44.0001 55.9738C43.2627 55.9738 42.6668 56.5711 42.6668 57.307V65.307C42.6668 66.043 43.2627 66.6403 44.0001 66.6403H72V73.307C72 75.5123 70.2053 77.307 68 77.307H12.0001C9.79483 77.307 8.00015 75.5123 8.00015 73.307V66.6403H38.7774C39.5148 66.6403 40.1107 66.043 40.1107 65.307C40.1107 64.5711 39.5148 63.9737 38.7774 63.9737H6.66671C5.92937 63.9737 5.33344 64.5711 5.33344 65.307V73.307C5.33344 76.9829 8.32405 79.9737 12.0001 79.9737H68C71.676 79.9737 74.6667 76.9831 74.6667 73.307V65.307C74.6666 64.5711 74.0706 63.9737 73.3333 63.9737Z" fill="#D4C17F"/>
<path d="M32.0001 70.6403V73.307C32.0001 74.0429 32.5961 74.6403 33.3334 74.6403C34.0707 74.6403 34.6667 74.0429 34.6667 73.307V70.6403C34.6667 69.9043 34.0707 69.307 33.3334 69.307C32.5961 69.307 32.0001 69.9043 32.0001 70.6403Z" fill="#D4C17F"/>
<path d="M1.39346 25.9751C1.37752 25.9737 1.36143 25.9737 1.34549 25.9737C0.632213 25.9737 0.0387768 26.5404 0.0148706 27.2604C0.0054956 27.4978 0.000183105 27.7351 0.000183105 27.9737C0.000183105 28.7096 0.59612 29.307 1.33346 29.307C2.0708 29.307 2.66674 28.7096 2.66674 27.9737C2.66674 27.7657 2.67205 27.5604 2.67877 27.3537C2.70408 26.6178 2.1294 26.0004 1.39346 25.9751Z" fill="#D4C17F"/>
<path d="M7.15346 17.4138C7.45205 17.1259 7.76283 16.8512 8.08283 16.5898C8.65345 16.123 8.73877 15.283 8.27221 14.7138C7.80689 14.1445 6.96689 14.0565 6.39627 14.5245C6.01893 14.8338 5.65221 15.1577 5.30299 15.4965C4.77237 16.0071 4.75768 16.8512 5.2683 17.3818C5.52971 17.6524 5.87893 17.7885 6.2283 17.7885C6.56143 17.7884 6.89611 17.6644 7.15346 17.4138Z" fill="#D4C17F"/>
<path d="M3.62817 19.6031C2.97083 19.2751 2.16676 19.539 1.8388 20.1978C1.6202 20.6325 1.41739 21.0792 1.23614 21.5337C0.962861 22.219 1.29614 22.9937 1.9788 23.267C2.14145 23.3323 2.30817 23.3629 2.47348 23.3629C3.00286 23.3629 3.50411 23.0456 3.71207 22.5243C3.86535 22.139 4.03614 21.7617 4.22145 21.3923C4.55207 20.7339 4.28676 19.9339 3.62817 19.6031Z" fill="#D4C17F"/>
<path d="M6.0294 5.56308C6.25471 5.56308 6.48409 5.50574 6.69346 5.38574C7.05487 5.17777 7.42143 4.98168 7.79611 4.79902C8.45611 4.47371 8.72814 3.67371 8.40408 3.01371C8.07877 2.35231 7.27737 2.08168 6.61877 2.40575C6.19206 2.61512 5.77346 2.83778 5.36284 3.07371C4.72549 3.44168 4.5055 4.25637 4.87346 4.89512C5.12018 5.32308 5.5694 5.56308 6.0294 5.56308Z" fill="#D4C17F"/>
<path d="M18.6667 70.6403V73.307C18.6667 74.0429 19.2626 74.6403 20 74.6403C20.7373 74.6403 21.3332 74.0429 21.3332 73.307V70.6403C21.3332 69.9043 20.7373 69.307 20 69.307C19.2626 69.307 18.6667 69.9043 18.6667 70.6403Z" fill="#D4C17F"/>
<path d="M78.0212 23.2671C78.7039 22.9938 79.0372 22.2191 78.7639 21.5338C78.5825 21.0791 78.3798 20.6324 78.1612 20.1979C77.8319 19.5393 77.0306 19.2765 76.3719 19.6032C75.7133 19.9338 75.4478 20.7338 75.7786 21.3926C75.9639 21.7619 76.1345 22.1393 76.288 22.5246C76.4959 23.046 76.9973 23.3632 77.5253 23.3632C77.6919 23.363 77.8586 23.3324 78.0212 23.2671Z" fill="#D4C17F"/>
<path d="M79.9853 27.2604C79.9613 26.523 79.308 25.9324 78.6067 25.9751C77.8708 26.0004 77.2961 26.6177 77.3214 27.3537C77.3281 27.5604 77.3335 27.7657 77.3335 27.9737C77.3335 28.7096 77.9294 29.307 78.6667 29.307C79.4041 29.307 80 28.7096 80 27.9737C80 27.7351 79.9945 27.4977 79.9853 27.2604Z" fill="#D4C17F"/>
<path d="M74.636 3.07389C74.2266 2.83795 73.808 2.6153 73.3813 2.40592C72.7254 2.08327 71.9213 2.35389 71.596 3.01389C71.2719 3.67389 71.544 4.47389 72.204 4.7992C72.5786 4.98185 72.9454 5.17795 73.3054 5.38592C73.516 5.50592 73.7454 5.56326 73.9694 5.56326C74.4308 5.56326 74.88 5.32326 75.1268 4.89529C75.4946 4.25654 75.2746 3.44186 74.636 3.07389Z" fill="#D4C17F"/>
<path d="M61.3334 73.307V70.6403C61.3334 69.9043 60.7374 69.307 60.0001 69.307C59.2627 69.307 58.6668 69.9043 58.6668 70.6403V73.307C58.6668 74.0429 59.2627 74.6403 60.0001 74.6403C60.7374 74.6403 61.3334 74.0429 61.3334 73.307Z" fill="#D4C17F"/>
<path d="M48.0001 73.307V70.6403C48.0001 69.9043 47.4042 69.307 46.6668 69.307C45.9295 69.307 45.3336 69.9043 45.3336 70.6403V73.307C45.3336 74.0429 45.9295 74.6403 46.6668 74.6403C47.404 74.6403 48.0001 74.0429 48.0001 73.307Z" fill="#D4C17F"/>
<path d="M73.6039 14.5245C73.0319 14.0565 72.1919 14.1445 71.728 14.7138C71.2613 15.2832 71.3466 16.1232 71.916 16.5898C72.2374 16.8512 72.548 17.1257 72.8466 17.4138C73.1039 17.6644 73.4386 17.7885 73.7719 17.7885C74.1213 17.7885 74.4692 17.6526 74.7319 17.3818C75.2425 16.8512 75.2278 16.0071 74.6972 15.4965C74.348 15.1577 73.9813 14.8338 73.6039 14.5245Z" fill="#D4C17F"/>
<path d="M8.11878 29.9765C7.35737 29.9259 6.74675 30.4791 6.69347 31.2124C6.67612 31.4644 6.66675 31.7177 6.66675 31.9738C6.66675 32.7097 7.26268 33.3071 8.00003 33.3071C8.73737 33.3071 9.33331 32.7097 9.33331 31.9738C9.33331 31.7818 9.34002 31.5898 9.35331 31.4018C9.40549 30.6671 8.85346 30.0298 8.11878 29.9765Z" fill="#D4C17F"/>
<path d="M26.4134 29.4444C25.6854 29.5404 25.1708 30.2097 25.2667 30.9403C25.3108 31.2789 25.3334 31.623 25.3334 31.9736V32.2043C25.3334 32.9416 25.9294 33.5375 26.6667 33.5375C27.404 33.5375 28 32.9416 28 32.2043V31.9736C28 31.5083 27.9706 31.043 27.9106 30.5922C27.8134 29.863 27.1573 29.3471 26.4134 29.4444Z" fill="#D4C17F"/>
<path d="M24.9067 4.02453C25.2987 4.17249 25.6853 4.3339 26.0667 4.50452C26.244 4.58452 26.4281 4.62187 26.6107 4.62187C27.1201 4.62187 27.6067 4.32859 27.8281 3.8339C28.1307 3.16187 27.8295 2.3725 27.1574 2.07125C26.7295 1.87922 26.2934 1.69797 25.8521 1.52984C25.1681 1.27391 24.3948 1.61516 24.1335 2.30453C23.8707 2.9925 24.2173 3.76187 24.9067 4.02453Z" fill="#D4C17F"/>
<path d="M24.3908 15.1124C24.7522 15.3124 25.1067 15.5271 25.4494 15.7551C25.6773 15.9083 25.9334 15.9804 26.1893 15.9804C26.6187 15.9804 27.0414 15.7737 27.2987 15.3898C27.7081 14.7777 27.5428 13.9485 26.9308 13.5391C26.5254 13.2685 26.1067 13.0138 25.6775 12.7777C25.0308 12.4244 24.2215 12.6565 23.8654 13.3018C23.5108 13.9457 23.7467 14.7577 24.3908 15.1124Z" fill="#D4C17F"/>
<path d="M1.33346 9.30715C1.69487 9.30715 2.05611 9.16043 2.31877 8.87247C2.45611 8.72184 2.59752 8.57247 2.74143 8.42716C3.25471 7.90044 3.24674 7.05653 2.72002 6.54185C2.19596 6.02716 1.3533 6.03654 0.834711 6.5606C0.670649 6.72857 0.507993 6.9006 0.347994 7.07528C-0.147943 7.61935 -0.109349 8.46325 0.434712 8.95934C0.690805 9.19247 1.01205 9.30715 1.33346 9.30715Z" fill="#D4C17F"/>
<path d="M22.292 25.6951C22.6173 25.9537 22.9226 26.2365 23.2 26.5351C23.464 26.8192 23.82 26.9618 24.1786 26.9618C24.5026 26.9618 24.8279 26.8445 25.0865 26.6059C25.6253 26.1059 25.6559 25.2618 25.1559 24.7218C24.7865 24.3245 24.3812 23.9485 23.9506 23.6071C23.3706 23.1485 22.5332 23.2457 22.0773 23.8218C21.6187 24.3978 21.7147 25.2365 22.292 25.6951Z" fill="#D4C17F"/>
<path d="M29.7534 20.1684C30.0067 20.5711 30.4401 20.7911 30.8828 20.7911C31.1268 20.7911 31.3708 20.7243 31.5922 20.587C32.2148 20.1937 32.4028 19.3696 32.0095 18.747C31.7481 18.3337 31.4708 17.9311 31.1789 17.5417C30.7348 16.9564 29.9003 16.835 29.3109 17.279C28.7229 17.7231 28.6056 18.559 29.0483 19.147C29.2973 19.4765 29.532 19.8178 29.7534 20.1684Z" fill="#D4C17F"/>
<path d="M30.3693 7.08576C30.6999 7.34045 31.024 7.60717 31.34 7.8817C31.592 8.1017 31.904 8.20842 32.2146 8.20842C32.5867 8.20842 32.9573 8.05373 33.2199 7.75107C33.704 7.19514 33.6453 6.35248 33.0893 5.86967C32.7346 5.55905 32.3693 5.2603 31.9946 4.97233C31.412 4.5217 30.576 4.63233 30.1253 5.21639C29.6773 5.80045 29.7854 6.63654 30.3693 7.08576Z" fill="#D4C17F"/>
<path d="M12.2414 3.18576C12.3361 3.18576 12.4308 3.17639 12.5267 3.15514C12.9361 3.06576 13.3494 2.98717 13.7641 2.92045C14.492 2.80576 14.9867 2.12186 14.8708 1.39514C14.7561 0.668422 14.0749 0.167173 13.3455 0.288422C12.8775 0.36311 12.4149 0.449828 11.9575 0.551078C11.2375 0.708422 10.7828 1.41905 10.9402 2.13904C11.0774 2.76186 11.6281 3.18576 12.2414 3.18576Z" fill="#D4C17F"/>
<path d="M18.7934 2.68981C19.2148 2.71918 19.632 2.75918 20.044 2.81122C20.1 2.81793 20.1573 2.82184 20.212 2.82184C20.8747 2.82184 21.4493 2.32856 21.5333 1.65512C21.6265 0.924501 21.1079 0.257783 20.3773 0.165752C19.9133 0.107158 19.444 0.0604397 18.9706 0.0298147C18.252 -0.0234664 17.5986 0.536532 17.5506 1.27122C17.5028 2.00575 18.0573 2.64043 18.7934 2.68981Z" fill="#D4C17F"/>
<path d="M32.6454 23.1392C31.9269 23.3018 31.4761 24.0151 31.6387 24.7338C31.7308 25.1338 31.8028 25.5391 31.8587 25.9498C31.9508 26.6191 32.5228 27.1044 33.1801 27.1044C33.2401 27.1044 33.3001 27.1004 33.3601 27.0912C34.0895 26.9926 34.6015 26.3205 34.5028 25.5912C34.4361 25.1032 34.3481 24.6205 34.2414 24.1445C34.0787 23.4271 33.3601 22.9777 32.6454 23.1392Z" fill="#D4C17F"/>
<path d="M11.9334 14.2418C12.0828 14.2418 12.2348 14.2165 12.3841 14.1632C12.7708 14.0232 13.1655 13.9005 13.5667 13.7952C14.2788 13.6059 14.7027 12.8766 14.5147 12.1646C14.3253 11.4526 13.5947 11.0326 12.8841 11.2166C12.4108 11.342 11.9427 11.4887 11.4827 11.6526C10.7906 11.9005 10.4294 12.6646 10.6786 13.3579C10.8734 13.9018 11.3867 14.2418 11.9334 14.2418Z" fill="#D4C17F"/>
<path d="M18.492 13.3525C18.9067 13.3845 19.3161 13.4339 19.7227 13.5004C19.7959 13.5125 19.868 13.5178 19.94 13.5178C20.5814 13.5178 21.1467 13.0551 21.2533 12.4018C21.3733 11.6751 20.8812 10.9886 20.1547 10.8686C19.6761 10.79 19.1906 10.7312 18.6973 10.6939C17.972 10.6298 17.3227 11.1845 17.2653 11.9192C17.2081 12.6539 17.7574 13.2951 18.492 13.3525Z" fill="#D4C17F"/>
<path d="M16.3681 24.023C16.4134 24.023 16.4601 24.0216 16.5067 24.0163C16.912 23.9749 17.3347 23.963 17.744 23.983C18.5108 24.0177 19.1055 23.4537 19.1414 22.7177C19.1787 21.983 18.612 21.3577 17.8761 21.3204C17.3308 21.291 16.772 21.3083 16.2334 21.363C15.5014 21.439 14.9681 22.0937 15.0428 22.8271C15.1147 23.5124 15.692 24.023 16.3681 24.023Z" fill="#D4C17F"/>
</g>
<defs>
<clipPath id="clip0_1_313">
<rect width="80" height="80" fill="white"/>
</clipPath>
</defs>
</svg>
